HIERARCHY
ROOT Root
{
  OFFSET 0.0 0.0 0.0
  CHANNELS 6 Xposition Yposition Zposition Zrotation Yrotation Xrotation
  JOINT Hips
  {
    OFFSET 0.0 100.0 0.0
    CHANNELS 6 Xposition Yposition Zposition Zrotation Yrotation Xrotation
    JOINT Spine1
    {
      OFFSET 5.003913 -0.037094 -0.013727
      CHANNELS 3 Zrotation Yrotation Xrotation
      JOINT Spine2
      {
        OFFSET 7.125363 -1e-06 0.0
        CHANNELS 3 Zrotation Yrotation Xrotation
        JOINT Chest
        {
          OFFSET 7.594027 1e-06 0.0
          CHANNELS 3 Zrotation Yrotation Xrotation
          JOINT Neck1
          {
            OFFSET 26.313086 -0.460272 -0.181672
            CHANNELS 3 Zrotation Yrotation Xrotation
            JOINT Neck2
            {
              OFFSET 8.04591 0.0 0.0
              CHANNELS 3 Zrotation Yrotation Xrotation
              JOINT Head
              {
                OFFSET 6.432777 0.0 0.0
                CHANNELS 3 Zrotation Yrotation Xrotation
                JOINT HeadEnd
                {
                  OFFSET 16.169769 0.06451 0.00362
                  CHANNELS 3 Zrotation Yrotation Xrotation
                }
                JOINT Jaw
                {
                  OFFSET 0.108738 3.12938 0.002639
                  CHANNELS 3 Zrotation Yrotation Xrotation
                }
                JOINT LeftEye
                {
                  OFFSET 4.451729 8.166359 3.206392
                  CHANNELS 3 Zrotation Yrotation Xrotation
                }
                JOINT RightEye
                {
                  OFFSET 4.43689 8.135758 -3.222429
                  CHANNELS 3 Zrotation Yrotation Xrotation
                }
              }
            }
          }
          JOINT LeftShoulder
          {
            OFFSET 23.218927 5.195579 1.621656
            CHANNELS 3 Zrotation Yrotation Xrotation
            JOINT LeftArm
            {
              OFFSET 15.902122 2e-06 -2e-06
              CHANNELS 3 Zrotation Yrotation Xrotation
              JOINT LeftForeArm
              {
                OFFSET 28.739304 0.0 -1e-06
                CHANNELS 3 Zrotation Yrotation Xrotation
                JOINT LeftHand
                {
                  OFFSET 27.093979 -4e-06 0.0
                  CHANNELS 3 Zrotation Yrotation Xrotation
                  JOINT LeftHandThumb1
                  {
                    OFFSET 2.276787 3.380274 0.83384
                    CHANNELS 3 Zrotation Yrotation Xrotation
                    JOINT LeftHandThumb2
                    {
                      OFFSET 4.705307 -2e-06 -1e-06
                      CHANNELS 3 Zrotation Yrotation Xrotation
                      JOINT LeftHandThumb3
                      {
                        OFFSET 2.798515 0.0 3e-06
                        CHANNELS 3 Zrotation Yrotation Xrotation
                        JOINT LeftHandThumbEnd
                        {
                          OFFSET 3.180786 5e-06 -4e-06
                          CHANNELS 3 Zrotation Yrotation Xrotation
                        }
                      }
                    }
                  }
                  JOINT LeftHandIndex1
                  {
                    OFFSET 3.24778 2.352677 0.137192
                    CHANNELS 3 Zrotation Yrotation Xrotation
                    JOINT LeftHandIndex2
                    {
                      OFFSET 6.367104 1e-06 0.0
                      CHANNELS 3 Zrotation Yrotation Xrotation
                      JOINT LeftHandIndex3
                      {
                        OFFSET 3.662361 0.0 0.0
                        CHANNELS 3 Zrotation Yrotation Xrotation
                        JOINT LeftHandIndex4
                        {
                          OFFSET 2.329239 4e-06 -4e-06
                          CHANNELS 3 Zrotation Yrotation Xrotation
                          JOINT LeftHandIndexEnd
                          {
                            OFFSET 2.767822 0.0 0.0
                            CHANNELS 3 Zrotation Yrotation Xrotation
                          }
                        }
                      }
                    }
                  }
                  JOINT LeftHandMiddle1
                  {
                    OFFSET 3.163612 0.945023 -0.406112
                    CHANNELS 3 Zrotation Yrotation Xrotation
                    JOINT LeftHandMiddle2
                    {
                      OFFSET 6.276794 3e-06 0.0
                      CHANNELS 3 Zrotation Yrotation Xrotation
                      JOINT LeftHandMiddle3
                      {
                        OFFSET 4.356522 -1e-06 4e-06
                        CHANNELS 3 Zrotation Yrotation Xrotation
                        JOINT LeftHandMiddle4
                        {
                          OFFSET 2.996872 0.0 8e-06
                          CHANNELS 3 Zrotation Yrotation Xrotation
                          JOINT LeftHandMiddleEnd
                          {
                            OFFSET 2.323257 3e-06 -4e-06
                            CHANNELS 3 Zrotation Yrotation Xrotation
                          }
                        }
                      }
                    }
                  }
                  JOINT LeftHandRing1
                  {
                    OFFSET 2.882607 -0.309162 0.107445
                    CHANNELS 3 Zrotation Yrotation Xrotation
                    JOINT LeftHandRing2
                    {
                      OFFSET 6.033195 0.0 4e-06
                      CHANNELS 3 Zrotation Yrotation Xrotation
                      JOINT LeftHandRing3
                      {
                        OFFSET 4.350578 3e-06 0.0
                        CHANNELS 3 Zrotation Yrotation Xrotation
                        JOINT LeftHandRing4
                        {
                          OFFSET 2.651321 1e-06 -7e-06
                          CHANNELS 3 Zrotation Yrotation Xrotation
                          JOINT LeftHandRingEnd
                          {
                            OFFSET 1.937668 1e-06 -4e-06
                            CHANNELS 3 Zrotation Yrotation Xrotation
                          }
                        }
                      }
                    }
                  }
                  JOINT LeftHandPinky1
                  {
                    OFFSET 2.865311 -1.525436 0.575687
                    CHANNELS 3 Zrotation Yrotation Xrotation
                    JOINT LeftHandPinky2
                    {
                      OFFSET 5.549362 1e-06 -8e-06
                      CHANNELS 3 Zrotation Yrotation Xrotation
                      JOINT LeftHandPinky3
                      {
                        OFFSET 3.070969 0.0 -4e-06
                        CHANNELS 3 Zrotation Yrotation Xrotation
                        JOINT LeftHandPinky4
                        {
                          OFFSET 1.549675 1e-06 0.0
                          CHANNELS 3 Zrotation Yrotation Xrotation
                          JOINT LeftHandPinkyEnd
                          {
                            OFFSET 1.952118 0.0 0.0
                            CHANNELS 3 Zrotation Yrotation Xrotation
                          }
                        }
                      }
                    }
                  }
                }
              }
            }
          }
          JOINT RightShoulder
          {
            OFFSET 23.161718 5.296122 -1.380114
            CHANNELS 3 Zrotation Yrotation Xrotation
            JOINT RightArm
            {
              OFFSET -16.027195 -2e-06 1.1e-05
              CHANNELS 3 Zrotation Yrotation Xrotation
              JOINT RightForeArm
              {
                OFFSET -28.736641 4e-06 2e-06
                CHANNELS 3 Zrotation Yrotation Xrotation
                JOINT RightHand
                {
                  OFFSET -27.133617 6e-06 0.0
                  CHANNELS 3 Zrotation Yrotation Xrotation
                  JOINT RightHandThumb1
                  {
                    OFFSET -2.274328 -3.351035 -0.83067
                    CHANNELS 3 Zrotation Yrotation Xrotation
                    JOINT RightHandThumb2
                    {
                      OFFSET -4.703592 -3e-06 2e-06
                      CHANNELS 3 Zrotation Yrotation Xrotation
                      JOINT RightHandThumb3
                      {
                        OFFSET -2.794937 -4e-06 -3e-06
                        CHANNELS 3 Zrotation Yrotation Xrotation
                        JOINT RightHandThumbEnd
                        {
                          OFFSET -3.183853 4e-06 1e-06
                          CHANNELS 3 Zrotation Yrotation Xrotation
                        }
                      }
                    }
                  }
                  JOINT RightHandIndex1
                  {
                    OFFSET -3.253498 -2.33755 -0.127667
                    CHANNELS 3 Zrotation Yrotation Xrotation
                    JOINT RightHandIndex2
                    {
                      OFFSET -6.344433 0.0 0.0
                      CHANNELS 3 Zrotation Yrotation Xrotation
                      JOINT RightHandIndex3
                      {
                        OFFSET -3.654869 0.0 -8e-06
                        CHANNELS 3 Zrotation Yrotation Xrotation
                        JOINT RightHandIndex4
                        {
                          OFFSET -2.327587 -1e-06 0.0
                          CHANNELS 3 Zrotation Yrotation Xrotation
                          JOINT RightHandIndexEnd
                          {
                            OFFSET -2.770004 3e-06 8e-06
                            CHANNELS 3 Zrotation Yrotation Xrotation
                          }
                        }
                      }
                    }
                  }
                  JOINT RightHandMiddle1
                  {
                    OFFSET -3.168224 -0.944764 0.411762
                    CHANNELS 3 Zrotation Yrotation Xrotation
                    JOINT RightHandMiddle2
                    {
                      OFFSET -6.266689 -1e-06 -4e-06
                      CHANNELS 3 Zrotation Yrotation Xrotation
                      JOINT RightHandMiddle3
                      {
                        OFFSET -4.348904 0.0 0.0
                        CHANNELS 3 Zrotation Yrotation Xrotation
                        JOINT RightHandMiddle4
                        {
                          OFFSET -3.000237 2e-06 -4e-06
                          CHANNELS 3 Zrotation Yrotation Xrotation
                          JOINT RightHandMiddleEnd
                          {
                            OFFSET -2.32148 -4e-06 -4e-06
                            CHANNELS 3 Zrotation Yrotation Xrotation
                          }
                        }
                      }
                    }
                  }
                  JOINT RightHandRing1
                  {
                    OFFSET -2.885654 0.293261 -0.119232
                    CHANNELS 3 Zrotation Yrotation Xrotation
                    JOINT RightHandRing2
                    {
                      OFFSET -6.032833 -1e-06 -4e-06
                      CHANNELS 3 Zrotation Yrotation Xrotation
                      JOINT RightHandRing3
                      {
                        OFFSET -4.33881 0.0 -4e-06
                        CHANNELS 3 Zrotation Yrotation Xrotation
                        JOINT RightHandRing4
                        {
                          OFFSET -2.654903 -4e-06 -4e-06
                          CHANNELS 3 Zrotation Yrotation Xrotation
                          JOINT RightHandRingEnd
                          {
                            OFFSET -1.935123 0.0 4e-06
                            CHANNELS 3 Zrotation Yrotation Xrotation
                          }
                        }
                      }
                    }
                  }
                  JOINT RightHandPinky1
                  {
                    OFFSET -2.866241 1.503903 -0.60527
                    CHANNELS 3 Zrotation Yrotation Xrotation
                    JOINT RightHandPinky2
                    {
                      OFFSET -5.553177 -1e-06 0.0
                      CHANNELS 3 Zrotation Yrotation Xrotation
                      JOINT RightHandPinky3
                      {
                        OFFSET -3.062664 -1e-06 -4e-06
                        CHANNELS 3 Zrotation Yrotation Xrotation
                        JOINT RightHandPinky4
                        {
                          OFFSET -1.546532 2e-06 4e-06
                          CHANNELS 3 Zrotation Yrotation Xrotation
                          JOINT RightHandPinkyEnd
                          {
                            OFFSET -1.952339 0.0 -4e-06
                            CHANNELS 3 Zrotation Yrotation Xrotation
                          }
                        }
                      }
                    }
                  }
                }
              }
            }
          }
        }
      }
    }
    JOINT LeftLeg
    {
      OFFSET -8.443107 2.567604 10.043214
      CHANNELS 3 Zrotation Yrotation Xrotation
      JOINT LeftShin
      {
        OFFSET 43.229202 1e-06 -1e-06
        CHANNELS 3 Zrotation Yrotation Xrotation
        JOINT LeftFoot
        {
          OFFSET 42.298607 1e-06 1e-06
          CHANNELS 3 Zrotation Yrotation Xrotation
          JOINT LeftToeBase
          {
            OFFSET 14.165863 1e-06 0.0
            CHANNELS 3 Zrotation Yrotation Xrotation
            JOINT LeftToeEnd
            {
              OFFSET 6.714096 -0.234461 0.0
              CHANNELS 3 Zrotation Yrotation Xrotation
            }
          }
        }
      }
    }
    JOINT RightLeg
    {
      OFFSET -8.303924 2.592729 -10.047277
      CHANNELS 3 Zrotation Yrotation Xrotation
      JOINT RightShin
      {
        OFFSET -43.369686 0.0 0.0
        CHANNELS 3 Zrotation Yrotation Xrotation
        JOINT RightFoot
        {
          OFFSET -42.260784 4e-06 3e-06
          CHANNELS 3 Zrotation Yrotation Xrotation
          JOINT RightToeBase
          {
            OFFSET -14.222237 -2e-06 -2e-06
            CHANNELS 3 Zrotation Yrotation Xrotation
            JOINT RightToeEnd
            {
              OFFSET -6.660072 0.232574 -1e-06
              CHANNELS 3 Zrotation Yrotation Xrotation
            }
          }
        }
      }
    }
  }
}
MOTION
Frames: 4
Frame Time: 0.03333333333333333
0.0 0.0 0.0 0.0 -0.0 0.0 -2.449905 100.536835 4.816141 90.741966 0.480105 90.018845 -3.956625 -0.632854 -0.008285 -12.477723 -0.636059 0.244948 17.84811 1.044696 -1.625932 22.906845 -1.622197 2.58986 -2.55697 -0.72044 -1.242124 -29.125956 -1.207972 -1.825344 6e-06 0.0 -0.0 0.015728 0.027195 -0.004403 0.0681 0.041172 0.00345 0.063214 0.010767 -0.006403 -122.553078 -70.277733 141.769806 43.319588 -54.755913 10.429483 24.838196 0.143777 -0.021865 -3.052753 3.668833 2.220417 17.636662 -26.322803 52.411343 -19.466705 -14.395626 29.410488 3e-06 -8.774857 -4e-06 16.250544 -18.004112 5.948468 -0.609779 -1.795657 -3.889341 -4.807106 -11.046845 -2.937857 -5e-06 -20.97612 2e-06 -5.019998 -25.033752 -4.031915 6e-06 2e-06 -2e-06 -10.634557 -5.686988 -3.565601 10.573291 -17.922997 -3.113907 -5e-06 -13.821271 4e-06 -0.501776 -31.18174 -4.02705 -11.62809 -59.845531 7.341347 -13.982743 -7.150221 -2.875053 13.772759 -8.401511 -3.218247 0.347721 -34.211754 0.771664 -0.963041 -17.733513 2.621042 -1e-06 1e-06 2e-06 -17.34646 -20.09527 -4.201796 21.757616 -1.63837 3.866446 -0.0 -6.338855 0.0 -1.697591 -22.591921 -6.194063 1e-06 -8e-06 -0.0 31.879383 -72.926025 168.621094 46.274712 -54.763371 -1.544439 22.426638 -0.643529 0.115926 -2.851192 7.759692 8.684394 22.182137 -20.375946 49.933392 -16.701817 -16.743547 28.476562 3e-06 -12.690625 0.0 16.158812 -17.628862 2.525304 -0.10592 -1.513857 -4.275886 -5.03905 -5.612885 -2.95356 -2e-06 -11.020564 6e-06 -6.111321 -15.895427 -3.840482 -0.0 1e-06 -4e-06 -10.283382 -5.680299 -4.341839 11.0283 -11.302422 -2.372632 -1.384277 -14.238628 -6.320133 -0.625447 -26.924343 -3.827613 -4.169777 -49.553886 -3.955876 -13.708541 -7.36349 -3.720939 18.141163 -14.05276 -3.242671 -3e-06 -18.78734 5e-06 -0.429718 -8.456095 2.555517 3e-06 2e-06 -3e-06 -15.923562 -20.094519 -5.473584 30.419245 -7.190821 1.73593 -2e-06 -8.162952 1e-06 -1.861903 -22.861603 -6.167969 -2e-06 -3e-06 -3e-06 -179.864655 -2.424638 -0.236855 9.243725 -0.036029 -0.050358 -78.548004 -0.80854 -2.714641 -5.375802 1.503716 2.132046 -1.000002 0.0 0.0 -0.686187 -2.597248 -5.748549 7.054631 -0.007047 -0.022231 -74.113792 -1.386219 -3.937863 -5.684175 0.694821 1.654493 -1.000005 0.0 0.0 
0.0 0.0 0.0 0.0 -0.0 0.0 -2.430231 100.544785 4.830869 90.72731 0.467871 90.031883 -3.962512 -0.64274 -0.010146 -12.466804 -0.61938 0.273887 17.8347 1.089605 -1.676989 22.902399 -1.597522 2.595826 -2.531121 -0.72697 -1.236377 -29.159498 -1.251572 -1.844686 6e-06 -0.0 0.0 0.015138 0.025234 0.018499 0.069674 0.038966 0.026333 0.063214 0.009155 0.015975 -122.452087 -70.336929 141.640274 43.368271 -54.802841 10.231493 24.849693 0.026227 -0.069384 -3.005606 3.665637 2.324877 17.636587 -26.322598 52.410973 -19.466566 -14.395548 29.410255 9e-06 -8.774803 -8e-06 16.242447 -17.985798 5.934003 -0.609776 -1.795649 -3.889309 -4.80709 -11.046777 -2.937834 -1.4e-05 -20.975952 4e-06 -5.019972 -25.033506 -4.031886 4e-06 2e-06 2e-06 -10.634516 -5.686964 -3.565573 10.573222 -17.922878 -3.11388 -7e-06 -13.821167 1e-06 -0.501786 -31.181433 -4.027012 -11.633891 -59.837914 7.397602 -13.982687 -7.15019 -2.875023 13.772684 -8.401448 -3.218225 0.347707 -34.211445 0.771654 -0.963029 -17.733347 2.621013 -5e-06 0.0 2e-06 -17.346405 -20.095173 -4.201755 21.757507 -1.638347 3.866423 -3e-06 -6.338804 -0.0 -1.697598 -22.591703 -6.194002 0.0 -7e-06 -4e-06 31.84907 -72.936043 168.696136 46.36388 -54.649921 -1.652372 22.422344 -0.664023 0.099276 -2.813482 7.688774 8.566502 22.182106 -20.375814 49.933208 -16.701721 -16.74346 28.476421 1.7e-05 -12.690576 -1.5e-05 16.194613 -17.646175 2.489777 -0.105924 -1.513852 -4.275865 -5.039043 -5.612869 -2.953552 -1.2e-05 -11.020514 1e-06 -6.111309 -15.895358 -3.840485 0.0 0.0 -3e-06 -10.283362 -5.680291 -4.341831 11.028248 -11.302369 -2.372611 -1.384291 -14.238574 -6.320118 -0.625466 -26.924219 -3.827621 -4.184857 -49.691383 -3.945335 -13.708511 -7.363482 -3.720932 18.141081 -14.052691 -3.242638 -1.4e-05 -18.787262 -6e-06 -0.429715 -8.456059 2.555506 1e-06 1e-06 -1e-06 -15.923543 -20.094467 -5.473567 30.419132 -7.190774 1.735971 -2e-06 -8.162917 -3e-06 -1.861907 -22.861494 -6.167968 -3e-06 -3e-06 1e-06 -179.874817 -2.427882 -0.251731 9.278679 -0.027785 -0.008259 -78.632248 -0.862274 -2.781491 -5.408743 1.534686 2.143092 -0.999998 -0.0 -0.0 -0.758255 -2.586563 -5.616734 7.186739 -0.011644 -0.009069 -74.209923 -1.521039 -3.962361 -5.73671 0.676722 1.651301 -1.0 1e-06 -0.0 
0.0 0.0 0.0 0.0 -0.0 0.0 -2.425806 100.541161 4.773745 90.730164 0.448395 90.026169 -3.9767 -0.65483 -0.018156 -12.4787 -0.613936 0.279624 17.865175 1.139776 -1.678657 22.906513 -1.572655 2.602324 -2.551029 -0.708729 -1.272566 -29.139439 -1.294463 -1.836565 6e-06 0.0 0.0 0.013488 0.024825 0.024557 0.056078 0.03505 0.033241 0.05463 0.011955 0.020385 -122.378319 -70.402222 141.513245 43.347748 -54.853558 10.170929 24.906908 -0.053117 -0.10534 -3.022924 3.651881 2.258427 17.636505 -26.322626 52.411068 -19.466496 -14.395493 29.410269 1.3e-05 -8.774762 -4e-06 16.255014 -18.014612 5.922586 -0.609779 -1.795645 -3.889312 -4.807075 -11.046757 -2.937841 -3.2e-05 -20.975908 6e-06 -5.019961 -25.033484 -4.031888 8e-06 1e-06 -1e-06 -10.634477 -5.686951 -3.565579 10.573168 -17.922834 -3.113867 -2.1e-05 -13.821145 9e-06 -0.501815 -31.181402 -4.027015 -11.678337 -59.838402 7.398714 -13.982637 -7.150176 -2.875041 13.77262 -8.401428 -3.218211 0.347664 -34.211384 0.771678 -0.963059 -17.733326 2.621011 -3e-06 4e-06 2e-06 -17.346327 -20.095127 -4.201777 21.75741 -1.638333 3.866421 -8e-06 -6.338795 6e-06 -1.697605 -22.591675 -6.194001 1e-06 -4e-06 -2e-06 31.82469 -72.923737 168.737869 46.413525 -54.532047 -1.736171 22.421812 -0.683634 0.076335 -2.814494 7.655857 8.563882 22.181986 -20.375839 49.933224 -16.701702 -16.743441 28.476456 -2e-06 -12.690521 7e-06 16.226562 -17.640163 2.480271 -0.10592 -1.513848 -4.275867 -5.039013 -5.612845 -2.95355 2e-06 -11.020478 -0.0 -6.111252 -15.895289 -3.84048 -1e-06 0.0 4e-06 -10.283316 -5.680263 -4.341832 11.028222 -11.302344 -2.372618 -1.384253 -14.238518 -6.320112 -0.625415 -26.924107 -3.827606 -4.215688 -49.765781 -3.928627 -13.708451 -7.363446 -3.720939 18.141029 -14.05266 -3.24265 -6e-06 -18.787188 8e-06 -0.429722 -8.456024 2.555504 1e-06 -3e-06 -1e-06 -15.923446 -20.094391 -5.473582 30.419024 -7.190773 1.735914 -3e-06 -8.162893 5e-06 -1.861888 -22.861406 -6.167916 -2e-06 0.0 0.0 -179.919235 -2.417837 -0.249295 9.347926 -0.024081 0.019761 -78.711617 -0.938275 -2.823397 -5.387393 1.544243 2.149287 -0.999996 0.0 -0.0 -0.850092 -2.595678 -5.527242 7.330856 -0.012867 -0.008068 -74.288788 -1.622243 -3.986707 -5.726357 0.666919 1.64952 -1.000001 -0.0 0.0 
0.0 0.0 0.0 0.0 -0.0 0.0 -2.425457 100.532913 4.700581 90.73777 0.434063 90.028061 -3.979692 -0.668777 -0.026365 -12.498062 -0.610493 0.271838 17.901972 1.181595 -1.667257 22.920425 -1.556164 2.598481 -2.580306 -0.688129 -1.314017 -29.131987 -1.316743 -1.826871 6e-06 0.0 -0.0 0.010139 0.024069 0.021052 0.039017 0.031106 0.03101 0.043551 0.013999 0.01503 -122.320755 -70.450066 141.431396 43.370071 -54.864876 10.206785 24.945942 -0.070263 -0.11168 -3.038795 3.678421 2.2214 17.636583 -26.322645 52.41103 -19.466566 -14.395533 29.410286 2e-06 -8.774786 -4e-06 16.256113 -18.015615 5.918567 -0.609777 -1.795647 -3.889316 -4.807073 -11.046772 -2.93784 -2e-06 -20.975952 1e-05 -5.019949 -25.033512 -4.031872 7e-06 1e-06 -4e-06 -10.6345 -5.686954 -3.565583 10.573221 -17.922884 -3.113874 1e-06 -13.821167 9e-06 -0.501772 -31.181454 -4.026994 -11.710566 -59.844902 7.391938 -13.982667 -7.150176 -2.875042 13.772669 -8.40146 -3.218222 0.347721 -34.211445 0.771675 -0.963034 -17.733353 2.621028 -0.0 -3e-06 2e-06 -17.346359 -20.095152 -4.201774 21.757467 -1.638363 3.866422 1e-06 -6.338805 1e-06 -1.697574 -22.5917 -6.193995 -2e-06 -7e-06 -1e-06 31.814396 -72.905273 168.767319 46.471859 -54.440788 -1.824811 22.424603 -0.669082 0.067136 -2.842901 7.621807 8.593861 22.182053 -20.37582 49.933193 -16.701735 -16.743481 28.476437 1.1e-05 -12.690563 -2e-06 16.234602 -17.623241 2.486402 -0.105922 -1.513854 -4.275876 -5.039034 -5.612863 -2.953549 -7e-06 -11.020502 -2e-06 -6.111291 -15.895326 -3.840471 -0.0 -1e-06 -0.0 -10.283353 -5.680288 -4.341827 11.028249 -11.302364 -2.372624 -1.384281 -14.238553 -6.320108 -0.625452 -26.924156 -3.827612 -4.25525 -49.767776 -3.894081 -13.708502 -7.363475 -3.72093 18.141085 -14.052687 -3.242656 -1.3e-05 -18.787237 -3e-06 -0.429716 -8.456038 2.555502 1e-06 -0.0 0.0 -15.923521 -20.094458 -5.473561 30.419119 -7.19077 1.735932 -7e-06 -8.162907 -2e-06 -1.861909 -22.861444 -6.167945 1e-06 -4e-06 -2e-06 -179.962372 -2.404118 -0.246111 9.408471 -0.023325 0.034462 -78.757042 -1.000199 -2.833175 -5.383751 1.543862 2.150802 -1.0 -0.0 -0.0 -0.908381 -2.612039 -5.468957 7.423983 -0.011743 -0.019221 -74.353302 -1.68767 -4.006958 -5.728432 0.659394 1.646993 -1.000003 0.0 -0.0 
